<svg width="540" height="220" xmlns="http://www.w3.org/2000/svg"><style>ellipse.red,rect.red{fill:#f99}ellipse.yellow,rect.yellow{fill:#ff9}ellipse.green,rect.green{fill:#9f9}ellipse.teal,rect.teal{fill:#9ff}ellipse.blue,rect.blue{fill:#99f}ellipse.purple,rect.purple{fill:#f9f}.dot-blue,.dot-green,.dot-red{stroke-width:3}.dot-red{stroke:#f99;fill:#ffe5e5}.dot-green{stroke:#9f9;fill:#e5ffe5}.dot-blue{stroke:#99f;fill:#e5e5ff}ellipse,line,path,rect{stroke-width:2;stroke:#000}text{text-anchor:middle;font-family:Helvetica,Arial,sans-serif;font-size:14px;fill:#000}ellipse{fill:#fff}.order{font-size:18px}.gray{fill:#e6e6e6}</style><text y="23" x="137" class="order">Balanced</text><path class="dot-green" d="M10 30h255v180H10z"/><g transform="translate(30 50)"><ellipse ry="10" rx="10"/><text y="5">0</text></g><g transform="translate(80 50)"><path d="M0 0l25 25" fill="none" stroke-width="2"/><ellipse ry="10" rx="10"/><text y="5">0</text></g><g transform="translate(105 75)"><ellipse ry="10" rx="10"/><text y="5">1</text></g><g transform="translate(200 50)"><path d="M0 0l-45 25" fill="none" stroke-width="2"/><path d="M0 0l45 25" fill="none" stroke-width="2"/><ellipse ry="10" rx="10" class="gray"/></g><g transform="translate(155 75)"><path d="M0 0l25 25" fill="none" stroke-width="2"/><ellipse ry="10" rx="10"/><text y="5">1</text><g transform="translate(25 25)"><ellipse ry="10" rx="10"/><text y="5">2</text></g></g><g transform="translate(245 75)"><ellipse ry="10" rx="10"/><text y="5">1</text></g><g transform="translate(135 140)"><path d="M0 0l-45 25" fill="none" stroke-width="2"/><path d="M0 0l45 25" fill="none" stroke-width="2"/><ellipse ry="10" rx="10" class="gray"/></g><g transform="translate(90 165)"><path d="M0 0l-25 25" fill="none" stroke-width="2"/><path d="M0 0l25 25" fill="none" stroke-width="2"/><ellipse ry="10" rx="10" class="gray"/><g transform="translate(-25 25)"><ellipse ry="10" rx="10"/><text y="5">2</text></g><g transform="translate(25 25)"><ellipse ry="10" rx="10"/><text y="5">2</text></g></g><g transform="translate(180 165)"><path d="M0 0l-25 25" fill="none" stroke-width="2"/><path d="M0 0l25 25" fill="none" stroke-width="2"/><ellipse ry="10" rx="10" class="gray"/><g transform="translate(-25 25)"><ellipse ry="10" rx="10"/><text y="5">2</text></g><g transform="translate(25 25)"><ellipse ry="10" rx="10"/><text y="5">2</text></g></g><text y="23" x="402" class="order">Not balanced</text><path class="dot-red" d="M275 30h255v180H275z"/><g><g transform="translate(345 50)"><path d="M0 0l-25 25" fill="none" stroke-width="2"/><ellipse ry="10" rx="10"/><text y="5">0</text></g><g transform="translate(320 75)"><path d="M0 0l-25 25" fill="none" stroke-width="2"/><ellipse ry="10" rx="10"/><text y="5">1</text></g><g transform="translate(295 100)"><ellipse ry="10" rx="10"/><text y="5">2</text></g></g><g><g transform="translate(440 50)"><path d="M0 0l-45 25" fill="none" stroke-width="2"/><path d="M0 0l45 25" fill="none" stroke-width="2"/><ellipse ry="10" rx="10" class="gray"/></g><g transform="translate(395 75)"><ellipse ry="10" rx="10"/><text y="5">1</text></g><g transform="translate(485 75)"><path d="M0 0l-25 25" fill="none" stroke-width="2"/><path d="M0 0l25 25" fill="none" stroke-width="2"/><ellipse ry="10" rx="10" class="gray"/><g transform="translate(-25 25)"><path d="M0 0l25 25" fill="none" stroke-width="2"/><ellipse ry="10" rx="10"/><text y="5">2</text><g transform="translate(25 25)"><ellipse ry="10" rx="10"/><text y="5">3</text></g></g><g transform="translate(25 25)"><ellipse ry="10" rx="10"/><text y="5">2</text></g></g></g><g><g transform="translate(295 140)"><path d="M0 0l25 25" fill="none" stroke-width="2"/><ellipse ry="10" rx="10"/><text y="5">0</text></g><g transform="translate(320 165)"><path d="M0 0l-25 25" fill="none" stroke-width="2"/><ellipse ry="10" rx="10"/><text y="5">1</text><g transform="translate(-25 25)"><ellipse ry="10" rx="10"/><text y="5">2</text></g></g></g><g><g transform="translate(370 140)"><path d="M0 0l25 25" fill="none" stroke-width="2"/><ellipse ry="10" rx="10"/><text y="5">0</text></g><g transform="translate(395 165)"><path d="M0 0l25 25" fill="none" stroke-width="2"/><ellipse ry="10" rx="10"/><text y="5">1</text></g><g transform="translate(420 190)"><ellipse ry="10" rx="10"/><text y="5">2</text></g></g></svg>